<?xml version="1.0" standalone="no"?>
<!DOCTYPE svg PUBLIC "-//W3C//DTD SVG 20010904//EN"
 "http://www.w3.org/TR/2001/REC-SVG-20010904/DTD/svg10.dtd">
<svg version="1.0" xmlns="http://www.w3.org/2000/svg"
 width="3472.000000pt" height="1019.000000pt" viewBox="0 0 3472.000000 1019.000000"
 preserveAspectRatio="xMidYMid meet">

<g transform="translate(0.000000,1019.000000) scale(0.100000,-0.100000)"
fill="black" stroke="none">
<path d="M910 4975 l0 -3935 5905 0 5905 0 0 3935 0 3935 -5905 0 -5905 0 0
-3935z m6156 2705 l159 -5 -55 -41 c-30 -22 -85 -62 -122 -88 -37 -26 -70 -51
-72 -55 -3 -4 15 -68 40 -142 24 -73 43 -138 41 -142 -1 -4 -55 31 -121 78
-65 48 -124 84 -131 81 -7 -2 -63 -41 -124 -86 -62 -46 -114 -81 -116 -78 -2
2 16 64 41 138 24 74 44 140 44 145 0 6 -54 48 -120 95 -66 47 -120 88 -120
93 0 4 69 7 153 7 l154 0 38 123 c61 195 51 193 105 27 l47 -145 159 -5z
m-1291 -350 l157 -5 -118 -85 c-65 -47 -122 -88 -126 -91 -4 -3 13 -69 38
-148 25 -79 44 -144 42 -146 -2 -2 -58 37 -124 85 l-122 89 -123 -90 c-67 -49
-124 -87 -125 -86 -2 1 17 65 42 142 24 77 44 142 44 145 0 4 -52 44 -115 89
-63 46 -118 87 -121 92 -3 5 59 9 148 9 l153 0 38 120 c62 200 52 197 108 30
l48 -145 156 -5z m2381 145 l46 -145 157 -2 156 -3 -122 -88 c-68 -49 -123
-94 -123 -102 0 -7 20 -74 44 -149 24 -75 42 -136 40 -136 -2 0 -59 40 -126
89 -71 52 -127 86 -133 82 -59 -46 -237 -172 -239 -169 -2 2 16 62 40 133 24
72 43 138 43 147 1 10 -46 50 -121 105 l-123 88 156 3 157 2 46 145 c26 80 49
145 51 145 2 0 25 -65 51 -145z m-3526 -948 l46 -142 153 -5 154 -5 -117 -84
c-64 -46 -119 -87 -122 -92 -3 -5 15 -73 40 -151 25 -78 44 -143 43 -144 -1
-1 -56 38 -122 87 -66 48 -126 86 -133 84 -7 -3 -62 -41 -123 -86 -60 -45
-112 -79 -116 -76 -4 4 50 181 84 273 2 6 -52 51 -121 100 l-125 89 155 3 154
3 47 149 c26 82 49 147 52 144 3 -2 26 -69 51 -147z m4471 1 l42 -138 154 0
c84 0 153 -3 153 -7 0 -5 -54 -46 -120 -93 -66 -46 -120 -89 -120 -95 0 -5 20
-71 44 -145 24 -74 42 -136 41 -138 -2 -2 -53 33 -115 78 -61 44 -117 83 -125
86 -8 4 -64 -30 -132 -80 -64 -47 -118 -84 -121 -82 -2 2 17 68 41 145 l45
142 -71 52 c-40 29 -97 70 -127 92 l-55 40 158 5 158 5 47 143 c25 78 49 139
53 135 4 -5 26 -70 50 -145z m-4619 -1440 l152 -3 -123 -89 c-75 -54 -120 -93
-117 -101 20 -54 85 -269 82 -272 -2 -3 -53 31 -113 74 -59 44 -114 83 -121
87 -8 5 -56 -23 -133 -79 -66 -48 -122 -85 -124 -83 -3 3 15 65 40 139 25 74
43 139 41 145 -3 7 -57 50 -121 96 l-117 83 153 5 153 5 42 133 c23 73 45 141
49 150 5 11 24 -33 56 -135 l49 -152 152 -3z m4958 159 l46 -142 158 -5 158
-5 -118 -85 c-65 -47 -122 -88 -127 -91 -5 -3 12 -71 37 -149 25 -79 44 -145
43 -147 -2 -1 -56 35 -120 82 -64 47 -122 85 -128 85 -6 0 -63 -38 -127 -85
-63 -47 -117 -84 -119 -82 -1 2 18 68 43 147 25 79 41 146 36 149 -5 3 -62 44
-126 91 l-118 85 158 5 159 5 44 143 c25 78 48 142 51 142 3 0 25 -64 50 -143z
m-4803 -1324 l38 -123 154 -2 155 -3 -122 -88 c-67 -49 -122 -92 -122 -96 0
-3 20 -69 44 -146 25 -77 44 -140 43 -142 -2 -1 -58 39 -125 88 -75 55 -127
87 -135 82 -7 -4 -63 -44 -124 -90 -62 -46 -113 -79 -113 -74 0 7 73 241 86
275 3 7 -50 51 -120 101 l-125 90 154 3 155 3 47 150 c55 173 46 175 110 -28z
m4470 0 l38 -123 154 -2 155 -3 -122 -88 c-67 -48 -122 -92 -122 -96 0 -5 20
-71 45 -147 24 -76 43 -139 42 -141 -1 -1 -58 39 -125 88 -73 53 -128 86 -135
82 -7 -4 -63 -44 -124 -90 -62 -46 -113 -79 -113 -73 0 9 71 235 87 276 2 6
-53 51 -122 100 l-126 89 155 3 156 3 47 150 c55 175 45 177 110 -28z m-3331
-1063 c98 0 153 -4 149 -10 -3 -5 -59 -48 -124 -94 l-119 -86 44 -137 c24 -76
43 -141 41 -146 -1 -4 -55 31 -119 78 -64 47 -120 85 -124 85 -5 0 -61 -38
-124 -85 -63 -47 -118 -85 -121 -85 -4 0 13 62 37 137 24 76 44 142 44 148 0
6 -54 49 -120 95 -66 47 -120 88 -120 93 0 4 69 7 153 7 l154 0 48 148 48 147
49 -147 50 -148 154 0z m2580 0 l159 -5 -123 -89 c-67 -48 -124 -92 -127 -95
-2 -4 16 -70 41 -145 25 -76 43 -140 41 -143 -3 -2 -58 35 -122 82 -68 51
-123 84 -131 81 -8 -3 -64 -42 -125 -87 -60 -45 -112 -80 -114 -77 -2 2 17 68
42 146 26 78 44 144 42 145 -2 2 -60 44 -128 93 l-125 89 160 3 160 2 37 120
c62 199 52 197 106 30 l47 -145 160 -5z m-1291 -352 l154 -3 -125 -89 c-69
-49 -123 -94 -121 -100 32 -88 88 -268 84 -272 -3 -3 -55 31 -117 76 -61 44
-116 83 -123 85 -7 2 -66 -36 -132 -85 -66 -49 -121 -88 -122 -86 -1 1 18 65
42 141 25 77 43 145 41 151 -2 6 -57 48 -121 95 l-118 84 154 5 153 5 50 150
49 150 49 -152 49 -152 154 -3z"/>
<path d="M14190 8030 l0 -880 175 0 175 0 0 375 0 375 370 0 370 0 0 150 0
150 -370 0 -370 0 0 210 0 210 425 0 425 0 0 145 0 145 -600 0 -600 0 0 -880z"/>
<path d="M15680 8755 l0 -155 170 0 170 0 0 155 0 155 -170 0 -170 0 0 -155z"/>
<path d="M22100 8755 l0 -155 170 0 170 0 0 155 0 155 -170 0 -170 0 0 -155z"/>
<path d="M24990 8600 c0 -170 -3 -310 -6 -310 -4 0 -29 21 -56 46 -136 127
-351 157 -533 75 -93 -43 -196 -143 -240 -236 -59 -124 -69 -179 -69 -375 0
-138 3 -189 17 -240 51 -181 157 -318 303 -387 71 -34 89 -38 175 -41 157 -7
250 29 362 136 l67 65 0 -91 0 -92 155 0 155 0 0 880 0 880 -165 0 -165 0 0
-310z m-152 -436 c51 -32 105 -104 122 -162 23 -81 33 -212 21 -299 -18 -141
-66 -225 -161 -281 -59 -35 -163 -37 -226 -4 -101 52 -156 158 -169 328 -18
223 54 386 192 439 62 24 163 14 221 -21z"/>
<path d="M16984 8445 c-87 -19 -172 -65 -243 -132 l-61 -59 0 88 0 88 -160 0
-160 0 2 -637 3 -638 167 -3 166 -2 4 407 c5 473 7 483 87 563 108 108 277
106 354 -5 40 -58 47 -146 47 -588 l0 -377 168 2 167 3 3 385 c4 607 -9 694
-117 801 -103 101 -262 140 -427 104z"/>
<path d="M18222 8450 c-136 -19 -224 -61 -295 -140 -46 -52 -93 -136 -103
-188 l-6 -28 149 -26 c90 -17 149 -23 151 -17 12 32 72 106 102 124 49 28 216
29 274 1 47 -23 75 -79 76 -147 l0 -46 -72 -21 c-40 -12 -129 -33 -198 -47
-260 -53 -355 -90 -429 -170 -69 -75 -86 -123 -86 -240 0 -89 3 -107 29 -163
37 -79 114 -152 194 -183 69 -27 230 -37 313 -20 74 16 153 54 221 107 l56 44
21 -70 22 -70 165 0 c154 0 166 1 161 18 -4 9 -19 51 -34 92 l-27 75 -6 420
c-5 261 -11 433 -18 453 -39 118 -128 192 -274 227 -77 19 -300 27 -386 15z
m348 -777 c0 -144 -28 -207 -117 -263 -154 -98 -333 -29 -333 128 0 50 3 58
38 92 40 41 77 54 277 103 147 36 135 41 135 -60z"/>
<path d="M19854 8445 c-88 -19 -177 -68 -245 -134 l-59 -57 0 88 0 88 -160 0
-160 0 0 -640 0 -640 169 0 169 0 4 408 c5 471 7 481 87 562 102 102 270 107
344 9 47 -63 50 -87 54 -546 l5 -433 164 0 165 0 -3 508 -3 507 -24 60 c-71
176 -285 269 -507 220z"/>
<path d="M21164 8451 c-246 -40 -417 -198 -480 -446 -26 -104 -24 -333 4 -438
48 -176 151 -308 297 -377 44 -21 104 -43 133 -49 77 -16 266 -13 341 4 156
37 282 140 351 287 39 84 59 158 44 158 -5 0 -74 11 -154 25 -80 14 -150 25
-155 25 -6 0 -17 -21 -24 -47 -20 -76 -56 -129 -109 -160 -40 -24 -58 -28
-122 -28 -130 0 -213 62 -256 191 -27 83 -28 334 -1 411 28 79 68 127 131 158
51 25 64 27 136 23 101 -6 145 -32 183 -109 14 -30 28 -61 31 -70 4 -15 11
-16 73 -4 37 7 112 20 165 30 l97 17 -24 64 c-64 170 -177 274 -348 320 -64
17 -244 26 -313 15z"/>
<path d="M23142 8450 c-184 -26 -300 -105 -371 -252 -49 -104 -52 -101 99
-127 72 -13 139 -25 149 -28 13 -3 22 6 36 37 24 53 74 96 127 111 56 15 185
6 231 -16 45 -21 77 -83 77 -147 l0 -45 -72 -21 c-40 -11 -129 -32 -198 -47
-264 -54 -337 -82 -414 -155 -80 -76 -101 -130 -101 -260 0 -95 3 -111 28
-162 36 -72 119 -149 195 -180 50 -20 74 -23 192 -23 160 1 206 15 324 100
l75 53 21 -69 21 -69 165 0 c154 0 166 1 159 18 -61 156 -59 134 -65 582 -8
475 -10 488 -86 570 -53 57 -120 94 -205 115 -78 19 -300 27 -387 15z m338
-894 c-33 -160 -261 -250 -380 -150 -43 37 -60 75 -60 133 0 42 5 56 30 85 38
43 75 57 266 104 l149 37 3 -79 c2 -43 -2 -102 -8 -130z"/>
<path d="M26112 8450 c-167 -30 -306 -110 -392 -224 -93 -122 -140 -268 -140
-428 0 -342 166 -569 475 -648 97 -25 264 -27 350 -5 238 61 416 245 469 482
20 92 20 244 0 336 -49 224 -228 412 -450 471 -73 20 -241 28 -312 16z m243
-294 c59 -27 129 -100 156 -161 29 -65 42 -191 29 -283 -18 -134 -78 -229
-174 -280 -43 -22 -64 -27 -131 -27 -67 0 -88 5 -130 27 -80 42 -132 106 -158
195 -52 174 -19 367 80 467 85 86 222 112 328 62z"/>
<path d="M28445 8448 c-85 -16 -172 -65 -242 -135 l-63 -64 0 90 0 91 -155 0
-155 0 0 -880 0 -880 170 0 170 0 0 316 0 316 53 -44 c121 -103 185 -128 319
-128 235 0 415 146 498 405 32 98 40 335 16 456 -63 319 -321 512 -611 457z
m110 -282 c117 -54 175 -177 175 -371 0 -221 -69 -351 -208 -391 -130 -38
-269 41 -322 184 -48 127 -46 329 4 437 64 141 219 203 351 141z"/>
<path d="M29785 8446 c-349 -68 -556 -364 -515 -736 20 -182 73 -301 180 -405
120 -115 282 -175 472 -175 200 0 330 52 463 185 88 88 130 157 166 275 20 62
24 97 24 205 0 145 -19 227 -78 340 -41 78 -164 201 -242 242 -136 71 -321 98
-470 69z m277 -299 c116 -67 168 -180 168 -360 0 -221 -105 -365 -278 -383
-157 -17 -295 94 -331 264 -39 185 17 382 131 460 65 44 95 52 184 49 66 -3
89 -8 126 -30z"/>
<path d="M31340 8441 c-53 -19 -118 -76 -177 -156 l-22 -30 0 88 -1 87 -155 0
-155 0 0 -640 0 -640 168 2 167 3 6 380 c6 415 12 460 67 540 39 56 82 78 152
78 42 0 73 -7 110 -25 34 -17 53 -22 56 -14 65 183 94 272 90 281 -7 20 -115
55 -184 60 -51 4 -80 1 -122 -14z"/>
<path d="M15682 7793 l3 -638 168 -3 167 -2 0 640 0 640 -170 0 -170 0 2 -637z"/>
<path d="M22102 7793 l3 -638 168 -3 167 -2 0 640 0 640 -170 0 -170 0 2 -637z"/>
<path d="M21436 5962 c-20 -39 -146 -313 -146 -318 0 -2 48 -4 108 -3 l107 0
110 121 c61 66 132 144 158 174 l49 54 -186 0 -185 0 -15 -28z"/>
<path d="M14180 5080 l0 -880 170 0 170 0 0 880 0 880 -170 0 -170 0 0 -880z"/>
<path d="M16910 5488 c0 -505 11 -770 35 -883 45 -212 208 -364 440 -411 110
-22 373 -22 475 0 171 36 315 137 378 263 71 140 82 268 82 986 l0 517 -179 0
-180 0 -3 -632 -3 -633 -24 -53 c-53 -117 -161 -169 -333 -160 -186 10 -294
99 -318 263 -5 40 -10 313 -10 643 l0 572 -180 0 -180 0 0 -472z"/>
<path d="M20190 5805 l0 -155 170 0 170 0 0 155 0 155 -170 0 -170 0 0 -155z"/>
<path d="M24562 5083 l3 -878 668 -3 667 -2 0 150 0 150 -490 0 -490 0 0 240
0 240 440 0 440 0 0 150 0 150 -440 0 -440 0 0 195 0 195 475 0 475 0 0 145 0
145 -655 0 -655 0 2 -877z"/>
<path d="M15250 5504 c-14 -2 -52 -9 -85 -15 -138 -25 -257 -116 -315 -241
-51 -112 -59 -101 95 -127 74 -12 143 -25 153 -27 13 -4 22 5 35 35 23 52 76
97 129 112 54 14 185 6 224 -14 16 -8 37 -24 47 -35 20 -22 43 -121 34 -145
-7 -19 -66 -37 -231 -73 -373 -80 -446 -115 -516 -245 -31 -57 -35 -74 -38
-159 -5 -130 17 -192 102 -276 80 -80 143 -105 280 -112 156 -7 273 29 382
120 l49 40 20 -69 21 -68 168 -3 c158 -2 168 -1 161 15 -61 147 -59 125 -65
573 -6 389 -8 419 -28 481 -36 109 -137 187 -282 218 -57 13 -295 23 -340 15z
m320 -756 c0 -101 -17 -179 -48 -223 -56 -81 -182 -129 -272 -105 -62 17 -125
81 -135 138 -10 59 25 128 77 155 35 17 322 94 361 96 14 1 17 -8 17 -61z"/>
<path d="M19316 5498 c-88 -16 -172 -63 -247 -134 l-69 -67 0 91 0 92 -155 0
-155 0 0 -640 0 -640 165 0 165 0 0 293 c1 160 5 353 10 427 8 117 13 142 37
190 80 157 310 188 402 55 35 -52 41 -128 41 -557 l0 -408 170 0 170 0 0 444
c0 263 -4 476 -11 523 -13 95 -55 189 -104 232 -101 88 -268 128 -419 99z"/>
<path d="M21332 5500 c-251 -45 -422 -193 -503 -435 -21 -61 -24 -88 -24 -220
0 -110 5 -167 17 -212 62 -225 217 -374 452 -433 98 -25 265 -27 351 -5 153
40 311 154 389 284 85 139 118 352 82 521 -50 234 -227 424 -452 484 -73 20
-241 28 -312 16z m243 -294 c73 -34 140 -112 166 -194 23 -77 28 -225 9 -307
-54 -238 -316 -334 -488 -180 -67 60 -99 128 -114 238 -36 269 94 467 307 467
52 0 83 -6 120 -24z"/>
<path d="M22994 5495 c-88 -19 -175 -67 -244 -134 l-60 -59 0 89 0 89 -160 0
-160 0 2 -637 3 -638 168 -3 167 -2 0 348 c0 483 12 560 102 636 130 112 322
74 369 -72 8 -25 13 -175 16 -475 l5 -437 166 2 167 3 3 390 c3 439 -6 591
-39 680 -65 174 -282 269 -505 220z"/>
<path d="M28225 5501 c-67 -17 -133 -72 -202 -166 l-22 -30 -1 88 0 87 -155 0
-155 0 0 -640 0 -640 165 0 165 0 0 178 c1 324 16 590 38 660 37 116 94 165
192 165 40 0 70 -7 107 -26 35 -17 53 -22 56 -14 58 154 98 280 90 288 -35 35
-214 67 -278 50z"/>
<path d="M29120 5499 c-180 -26 -350 -136 -439 -283 -18 -31 -47 -95 -64 -143
-29 -82 -31 -97 -31 -223 0 -158 17 -238 71 -349 73 -148 234 -265 418 -306
115 -26 295 -17 395 18 151 54 280 168 351 312 55 112 72 189 72 320 0 131
-17 207 -73 321 -121 247 -396 378 -700 333z m245 -294 c54 -26 116 -90 142
-146 50 -106 55 -289 12 -404 -32 -86 -115 -168 -194 -191 -166 -48 -323 43
-376 218 -29 95 -24 277 9 352 41 91 103 154 179 182 53 20 177 14 228 -11z"/>
<path d="M30765 5498 c-82 -15 -171 -64 -236 -129 l-59 -59 0 85 0 85 -160 0
-160 0 0 -880 0 -880 170 0 170 0 0 316 0 316 53 -44 c120 -101 188 -128 323
-128 249 0 451 184 508 462 21 100 21 304 1 406 -63 313 -323 505 -610 450z
m111 -282 c108 -50 163 -155 171 -327 11 -221 -35 -346 -156 -417 -60 -35
-154 -37 -223 -3 -101 48 -160 151 -177 306 -32 279 78 462 279 464 38 1 71
-7 106 -23z"/>
<path d="M32020 5495 c-215 -49 -369 -206 -431 -440 -30 -113 -30 -327 0 -438
32 -122 76 -203 151 -277 116 -116 237 -160 439 -160 190 0 314 44 419 150 54
54 132 179 132 212 0 10 -38 20 -142 37 -79 12 -153 25 -164 27 -17 5 -24 -2
-37 -34 -21 -52 -68 -106 -111 -126 -51 -24 -141 -21 -201 8 -90 43 -146 124
-161 234 l-7 52 422 0 421 0 0 98 c0 131 -28 262 -79 366 -66 136 -193 241
-342 282 -82 22 -232 26 -309 9z m222 -257 c88 -26 159 -122 174 -236 l7 -52
-253 0 -252 0 4 59 c12 168 163 276 320 229z"/>
<path d="M33390 5501 c-134 -20 -238 -68 -302 -140 -41 -46 -108 -171 -108
-201 0 -13 27 -21 133 -39 72 -12 140 -25 149 -27 13 -4 24 8 41 43 43 84 94
112 208 113 148 1 210 -43 217 -155 l4 -61 -73 -22 c-41 -12 -130 -33 -199
-47 -325 -66 -420 -117 -487 -260 -24 -52 -28 -72 -28 -155 0 -88 3 -101 33
-162 39 -79 92 -130 180 -171 59 -27 79 -31 177 -35 158 -6 256 25 373 117 28
22 53 37 55 33 2 -4 12 -35 22 -69 l18 -63 164 0 c89 0 163 2 163 4 0 3 -14
47 -32 98 l-32 93 -6 415 c-6 356 -9 423 -24 468 -31 96 -133 175 -268 207
-74 18 -300 27 -378 16z m340 -783 c0 -118 -12 -160 -61 -213 -52 -57 -126
-88 -207 -89 -53 0 -68 5 -103 30 -110 77 -104 214 11 271 25 13 105 36 179
53 74 17 137 33 140 35 2 3 13 5 23 5 16 0 18 -9 18 -92z"/>
<path d="M20190 4840 l0 -640 170 0 170 0 0 640 0 640 -170 0 -170 0 0 -640z"/>
<path d="M26192 5003 c4 -413 7 -486 22 -537 53 -186 171 -274 379 -284 156
-7 270 34 382 140 l65 60 0 -91 0 -91 155 0 155 0 0 640 0 640 -163 0 -164 0
-6 -397 c-4 -219 -11 -420 -17 -448 -35 -174 -268 -265 -394 -154 -69 60 -70
64 -74 557 l-4 442 -170 0 -170 0 4 -477z"/>
<path d="M19126 2579 c-89 -12 -221 -57 -292 -100 -85 -51 -184 -163 -232
-262 -73 -148 -87 -216 -87 -417 0 -153 3 -185 23 -254 58 -202 173 -346 343
-430 143 -70 225 -88 399 -89 116 0 160 4 222 21 116 32 217 77 317 143 l91
60 0 284 0 285 -320 0 -320 0 0 -90 0 -90 225 0 225 0 0 -140 0 -140 -42 -31
c-60 -44 -159 -87 -253 -111 -65 -17 -99 -20 -185 -15 -255 13 -422 134 -497
360 -24 74 -27 97 -27 232 -1 131 2 160 22 225 85 272 268 400 552 387 204 -9
337 -94 396 -254 9 -27 20 -52 24 -56 4 -4 46 2 93 15 98 26 96 19 51 132 -67
168 -185 269 -371 317 -92 23 -259 32 -357 18z"/>
<path d="M14180 1805 l0 -765 95 0 95 0 0 595 c0 327 3 595 8 595 4 0 185
-268 402 -595 l395 -595 103 0 102 0 0 765 0 765 -95 0 -95 0 -2 -597 -3 -598
-399 598 -399 597 -103 0 -104 0 0 -765z"/>
<path d="M26210 2470 l0 -100 95 0 95 0 0 100 0 100 -95 0 -95 0 0 -100z"/>
<path d="M29080 1805 l0 -765 565 0 565 0 0 90 0 90 -465 0 -465 0 0 260 0
260 420 0 420 0 0 90 0 90 -420 0 -420 0 0 235 0 235 450 0 450 0 0 90 0 90
-550 0 -550 0 0 -765z"/>
<path d="M30492 2023 c4 -522 5 -552 25 -625 56 -198 162 -302 363 -355 81
-21 308 -23 395 -4 146 32 284 131 338 243 61 124 61 123 65 731 l3 557 -95 0
-94 0 -5 -517 c-4 -551 -7 -585 -57 -682 -28 -56 -100 -115 -167 -137 -89 -29
-288 -27 -365 4 -70 28 -142 95 -168 157 -35 82 -40 158 -40 673 l0 502 -101
0 -100 0 3 -547z"/>
<path d="M18063 2477 l-83 -52 0 -137 0 -138 -70 0 -70 0 0 -75 0 -75 69 0 70
0 3 -417 c3 -470 3 -470 79 -520 49 -33 153 -49 239 -37 l65 9 -1 35 c0 19 -4
56 -8 83 l-7 47 -64 0 c-53 0 -69 4 -92 24 l-28 24 -3 376 -3 376 96 0 95 0 0
75 0 75 -95 0 -95 0 0 190 c0 105 -3 190 -7 189 -5 0 -45 -24 -90 -52z"/>
<path d="M25743 2477 l-83 -52 0 -137 0 -138 -70 0 -70 0 0 -75 0 -75 69 0 70
0 3 -417 c3 -470 3 -470 79 -520 49 -33 153 -49 239 -37 l65 9 -1 35 c0 19 -4
56 -8 83 l-7 47 -64 0 c-53 0 -69 4 -92 24 l-28 24 -3 376 -3 376 96 0 95 0 0
75 0 75 -95 0 -95 0 0 190 c0 105 -3 190 -7 189 -5 0 -45 -24 -90 -52z"/>
<path d="M16050 2160 c-137 -25 -253 -102 -324 -217 -14 -24 -38 -78 -53 -120
-24 -70 -27 -92 -27 -223 -1 -164 10 -221 60 -322 59 -117 172 -206 304 -239
87 -22 262 -17 338 10 119 41 201 111 254 216 34 65 50 115 40 115 -11 0 -135
20 -160 25 -19 5 -25 -2 -46 -49 -29 -66 -87 -131 -140 -158 -57 -29 -157 -35
-231 -13 -48 13 -70 28 -120 78 -50 50 -66 74 -83 127 -12 36 -25 86 -28 113
l-7 47 413 0 413 0 -6 113 c-8 170 -57 288 -157 380 -112 103 -275 146 -440
117z m238 -169 c90 -46 147 -131 167 -248 l7 -43 -312 0 -312 0 7 43 c20 124
98 221 212 263 56 21 177 13 231 -15z"/>
<path d="M20530 2160 c-137 -25 -253 -102 -324 -217 -14 -24 -38 -78 -53 -120
-24 -70 -27 -92 -27 -223 -1 -164 10 -221 60 -322 59 -117 172 -206 304 -239
87 -22 262 -17 338 10 119 41 201 111 254 216 34 65 50 115 40 115 -11 0 -135
20 -160 25 -19 5 -25 -2 -46 -49 -29 -66 -87 -131 -140 -158 -57 -29 -157 -35
-231 -13 -48 13 -70 28 -120 78 -50 50 -66 74 -83 127 -12 36 -25 86 -28 113
l-7 47 413 0 413 0 -6 113 c-8 170 -57 288 -157 380 -112 103 -275 146 -440
117z m238 -169 c90 -46 147 -131 167 -248 l7 -43 -312 0 -312 0 7 43 c20 124
98 221 212 263 56 21 177 13 231 -15z"/>
<path d="M21790 2160 c-74 -16 -165 -67 -209 -117 l-41 -46 0 77 0 76 -85 0
-85 0 0 -555 0 -555 95 0 95 0 0 359 c0 329 2 364 20 423 44 142 202 221 354
176 58 -18 120 -82 134 -140 8 -32 12 -172 12 -432 l0 -386 95 0 95 0 0 353
c-1 442 -7 522 -49 605 -36 71 -82 110 -169 142 -64 24 -194 34 -262 20z"/>
<path d="M22900 2160 c-137 -25 -253 -102 -324 -217 -14 -24 -38 -78 -53 -120
-24 -70 -27 -92 -27 -223 -1 -164 10 -221 60 -322 59 -117 172 -206 304 -239
87 -22 262 -17 338 10 119 41 201 111 254 216 34 65 50 115 40 115 -11 0 -135
20 -160 25 -19 5 -25 -2 -46 -49 -29 -66 -87 -131 -140 -158 -57 -29 -157 -35
-231 -13 -48 13 -70 28 -120 78 -50 50 -66 74 -83 127 -12 36 -25 86 -28 113
l-7 47 413 0 413 0 -6 113 c-8 170 -57 288 -157 380 -112 103 -275 146 -440
117z m238 -169 c90 -46 147 -131 167 -248 l7 -43 -312 0 -312 0 7 43 c20 124
98 221 212 263 56 21 177 13 231 -15z"/>
<path d="M24069 2157 c-57 -22 -91 -51 -129 -111 -19 -30 -38 -55 -42 -56 -5
0 -8 36 -8 80 l0 80 -80 0 -80 0 0 -555 0 -555 89 0 89 0 4 353 c4 319 7 358
25 420 42 141 144 196 277 151 26 -9 49 -15 51 -12 2 2 17 40 34 85 l30 82
-56 21 c-73 27 -158 34 -204 17z"/>
<path d="M24785 2160 c-121 -18 -212 -57 -271 -117 -35 -35 -86 -130 -98 -185
-6 -26 -5 -26 67 -38 114 -19 106 -21 129 38 43 115 129 158 294 150 79 -4
100 -9 145 -35 65 -36 89 -79 96 -167 l6 -64 -34 -10 c-58 -19 -127 -32 -298
-57 -239 -34 -329 -73 -392 -173 -79 -125 -65 -277 36 -378 144 -145 444 -136
648 20 l47 36 6 -28 c3 -15 11 -45 17 -67 l12 -40 98 -3 c53 -1 97 0 97 3 0 3
-7 19 -15 34 -32 62 -38 130 -44 496 -6 347 -8 373 -27 415 -28 61 -67 97
-139 131 -92 43 -246 59 -380 39z m365 -622 c0 -91 -20 -176 -54 -226 -58 -87
-171 -142 -290 -142 -83 0 -131 15 -176 56 -96 87 -56 232 75 269 27 8 107 24
176 35 69 11 155 29 190 39 35 10 67 19 72 20 4 0 7 -22 7 -51z"/>
<path d="M27023 2159 c-109 -18 -205 -70 -282 -154 -86 -94 -125 -219 -125
-410 0 -206 41 -323 148 -431 122 -121 296 -168 481 -129 213 45 353 194 385
409 20 129 9 314 -23 400 -88 238 -314 360 -584 315z m207 -165 c74 -22 158
-106 189 -189 46 -122 45 -309 -1 -432 -30 -81 -115 -165 -188 -187 -119 -36
-235 -9 -317 72 -53 54 -78 104 -98 200 -38 179 0 366 96 462 83 83 198 110
319 74z"/>
<path d="M28280 2160 c-74 -16 -165 -67 -209 -117 l-41 -46 0 77 0 76 -85 0
-85 0 0 -555 0 -555 95 0 95 0 0 359 c0 329 2 364 20 423 44 142 202 221 354
176 58 -18 120 -82 134 -140 8 -32 12 -172 12 -432 l0 -386 95 0 95 0 0 353
c-1 442 -7 522 -49 605 -36 71 -82 110 -169 142 -64 24 -194 34 -262 20z"/>
<path d="M16796 2138 c4 -7 79 -116 167 -243 88 -126 168 -242 178 -256 l18
-25 -200 -285 -200 -284 107 -3 c64 -2 111 1 118 8 5 5 71 98 146 207 75 108
140 198 146 199 5 2 71 -92 146 -207 l137 -209 111 0 c60 0 110 2 110 5 0 3
-88 132 -195 287 -108 155 -194 286 -192 292 3 7 84 125 181 263 97 138 176
254 176 257 0 3 -48 6 -107 6 l-108 0 -134 -192 c-115 -163 -136 -189 -145
-174 -6 10 -62 96 -125 192 l-113 174 -115 0 c-89 0 -113 -3 -107 -12z"/>
<path d="M26210 1595 l0 -555 95 0 95 0 0 555 0 555 -95 0 -95 0 0 -555z"/>
</g>
</svg>
