<?xml version="1.0" standalone="no"?>
<!DOCTYPE svg PUBLIC "-//W3C//DTD SVG 20010904//EN"
 "http://www.w3.org/TR/2001/REC-SVG-20010904/DTD/svg10.dtd">
<svg version="1.0" xmlns="http://www.w3.org/2000/svg"
 width="448.000000pt" height="112.000000pt" viewBox="0 0 448.000000 112.000000"
 preserveAspectRatio="xMidYMid meet">

<g transform="translate(0.000000,112.000000) scale(0.100000,-0.100000)"
fill="black" stroke="none">
<path d="M2225 1060 c-3 -5 -1 -10 4 -10 6 0 11 5 11 10 0 6 -2 10 -4 10 -3 0
-8 -4 -11 -10z"/>
<path d="M2250 1060 c0 -5 7 -10 16 -10 8 0 12 5 9 10 -3 6 -10 10 -16 10 -5
0 -9 -4 -9 -10z"/>
<path d="M2225 1030 c3 -5 8 -10 11 -10 2 0 4 5 4 10 0 6 -5 10 -11 10 -5 0
-7 -4 -4 -10z"/>
<path d="M2250 1030 c0 -5 4 -10 9 -10 6 0 13 5 16 10 3 6 -1 10 -9 10 -9 0
-16 -4 -16 -10z"/>
<path d="M2039 985 c-29 -16 -59 -70 -59 -107 0 -12 9 -38 20 -56 17 -27 25
-32 43 -26 32 10 32 12 7 32 -51 42 -10 132 59 132 35 0 60 24 35 34 -27 10
-78 6 -105 -9z"/>
<path d="M2230 915 c0 -78 2 -85 20 -85 18 0 20 7 20 85 0 78 -2 85 -20 85
-18 0 -20 -7 -20 -85z"/>
<path d="M2352 993 c-21 -8 7 -33 38 -33 15 0 39 -9 54 -21 33 -26 36 -79 5
-110 -24 -24 -22 -28 12 -31 19 -2 28 5 43 35 16 33 17 45 7 77 -20 69 -96
108 -159 83z"/>
<path d="M2177 979 c-36 -21 -58 -98 -41 -143 3 -9 17 -16 31 -16 20 0 24 4
18 18 -18 42 -17 64 4 92 21 29 28 60 14 60 -5 0 -16 -5 -26 -11z"/>
<path d="M2290 969 c0 -11 9 -32 20 -46 24 -30 24 -39 6 -75 -14 -27 -14 -28
9 -28 61 0 59 107 -3 158 -23 17 -32 15 -32 -9z"/>
<path d="M2120 797 c-47 -10 -54 -15 -52 -32 5 -27 6 -27 34 -16 63 24 186 23
311 -2 6 -1 13 7 15 19 3 18 -5 22 -61 32 -78 15 -173 14 -247 -1z"/>
<path d="M2762 710 c-38 -23 -52 -54 -52 -117 0 -38 5 -50 34 -79 37 -37 86
-45 129 -23 16 9 22 9 25 0 2 -6 10 -11 18 -11 11 0 14 16 14 65 l0 65 -50 0
c-38 0 -50 -4 -50 -15 0 -9 9 -15 25 -15 15 0 25 -6 25 -14 0 -22 -29 -46 -56
-46 -64 0 -91 107 -38 149 33 26 49 26 74 1 23 -23 60 -27 60 -6 0 8 -14 26
-31 40 -37 32 -81 34 -127 6z"/>
<path d="M70 600 c0 -113 1 -120 20 -120 17 0 19 8 22 82 l3 83 52 -83 c43
-67 57 -82 78 -82 l25 0 0 120 0 120 -25 0 c-23 0 -24 -3 -27 -77 l-3 -78 -48
78 c-39 62 -53 77 -73 77 l-24 0 0 -120z"/>
<path d="M516 704 c-9 -8 -16 -21 -16 -29 0 -7 -7 -15 -15 -19 -8 -3 -15 -10
-15 -16 0 -5 7 -10 15 -10 12 0 15 -15 15 -75 0 -73 1 -75 25 -75 24 0 25 2
25 75 0 60 3 75 15 75 8 0 15 7 15 15 0 8 -7 15 -15 15 -8 0 -15 5 -15 10 0 6
7 13 15 16 8 4 15 12 15 20 0 19 -45 18 -64 -2z"/>
<path d="M1450 600 c0 -113 1 -120 20 -120 15 0 20 7 20 29 0 16 6 34 13 40
11 8 18 2 36 -29 18 -33 28 -40 52 -40 l29 0 -36 55 -37 56 26 27 c32 33 34
42 9 42 -10 0 -31 -13 -47 -30 -16 -16 -32 -30 -37 -30 -4 0 -8 27 -8 60 0 53
-2 60 -20 60 -19 0 -20 -7 -20 -120z"/>
<path d="M1950 436 c0 -349 -11 -324 156 -355 137 -26 140 -26 282 1 76 14
122 28 134 40 17 17 18 41 18 308 l0 290 -295 0 -295 0 0 -284z m125 244 c13
-15 31 -20 64 -20 34 0 51 5 64 20 10 12 29 20 47 20 19 0 34 -7 42 -20 10
-16 24 -20 63 -20 39 0 53 4 63 20 15 24 64 27 86 4 22 -21 20 -60 -4 -84 -15
-15 -20 -33 -20 -73 0 -40 5 -57 20 -70 11 -9 20 -28 20 -42 0 -14 -9 -34 -20
-45 -29 -29 -28 -118 1 -143 30 -27 23 -78 -15 -96 -25 -12 -31 -11 -55 6 -39
28 -105 15 -141 -29 -25 -29 -30 -32 -56 -23 -16 6 -33 20 -38 32 -13 28 -102
48 -124 27 -7 -8 -19 -15 -25 -15 -64 -7 -101 56 -57 96 16 14 20 31 20 75 0
44 -4 61 -20 75 -11 10 -20 28 -20 40 0 12 9 30 20 40 16 14 20 31 20 75 0 44
-4 61 -20 75 -11 10 -20 27 -20 38 0 51 70 76 105 37z"/>
<path d="M2013 654 c-8 -21 13 -42 28 -27 13 13 5 43 -11 43 -6 0 -13 -7 -17
-16z"/>
<path d="M2226 654 c-4 -10 -2 -22 3 -27 14 -14 43 0 39 20 -4 24 -34 28 -42
7z"/>
<path d="M2444 655 c-4 -9 -2 -21 4 -27 15 -15 44 -1 40 19 -4 23 -36 29 -44
8z"/>
<path d="M2087 624 c-6 -7 117 -145 135 -152 4 -2 8 22 8 53 0 76 -25 105 -91
105 -25 0 -49 -3 -52 -6z"/>
<path d="M2285 606 c-16 -17 -19 -33 -17 -79 l3 -58 67 72 c37 39 69 76 70 80
2 5 -20 9 -50 8 -41 -1 -58 -6 -73 -23z"/>
<path d="M2050 534 c0 -78 23 -104 93 -104 28 0 47 5 47 11 0 6 -31 43 -70 83
l-70 71 0 -61z"/>
<path d="M2366 519 c-36 -39 -63 -75 -60 -80 3 -5 25 -9 49 -9 65 0 95 33 95
105 0 30 -4 55 -9 55 -5 0 -39 -32 -75 -71z"/>
<path d="M2017 434 c-16 -16 -7 -44 14 -44 15 0 20 5 17 22 -3 22 -19 33 -31
22z"/>
<path d="M2444 425 c-4 -9 -2 -21 4 -27 15 -15 44 -1 40 19 -4 23 -36 29 -44
8z"/>
<path d="M2072 377 c-18 -19 -22 -35 -22 -83 l1 -59 69 73 c39 41 70 78 70 83
0 5 -22 9 -48 9 -38 0 -53 -5 -70 -23z"/>
<path d="M2307 394 c-7 -8 121 -154 134 -154 5 0 9 25 9 55 0 48 -4 59 -27 80
-20 17 -40 24 -69 25 -22 0 -44 -3 -47 -6z"/>
<path d="M2148 286 c-36 -40 -63 -77 -60 -83 4 -6 31 -15 59 -21 72 -13 83 0
83 101 0 42 -3 77 -7 77 -5 -1 -38 -34 -75 -74z"/>
<path d="M2270 280 c0 -103 8 -112 84 -96 27 6 51 16 52 21 2 6 -28 44 -66 85
l-70 75 0 -85z"/>
<path d="M2017 204 c-16 -16 -7 -44 14 -44 15 0 20 5 17 22 -3 22 -19 33 -31
22z"/>
<path d="M2444 195 c-7 -18 3 -35 22 -35 20 0 30 30 13 41 -20 12 -29 11 -35
-6z"/>
<path d="M2225 150 c-9 -15 4 -30 26 -30 12 0 19 7 19 20 0 21 -33 29 -45 10z"/>
<path d="M3160 600 c0 -113 1 -120 20 -120 11 0 20 4 20 9 0 5 13 4 30 -2 45
-17 82 0 97 45 15 44 1 103 -27 118 -25 14 -63 13 -78 -2 -9 -9 -12 -3 -12 30
0 38 -2 42 -25 42 l-25 0 0 -120z m114 14 c35 -34 4 -114 -38 -98 -22 8 -38
48 -29 71 16 45 40 54 67 27z"/>
<path d="M3360 705 c0 -9 9 -15 25 -15 16 0 25 6 25 15 0 9 -9 15 -25 15 -16
0 -25 -6 -25 -15z"/>
<path d="M322 644 c-12 -8 -22 -22 -22 -30 0 -19 39 -18 46 1 8 20 53 19 61
-1 8 -20 -13 -34 -53 -34 -53 0 -82 -51 -48 -84 18 -19 75 -21 92 -4 9 9 12 9
12 0 0 -7 11 -12 25 -12 24 0 25 2 25 70 0 57 -4 74 -20 90 -24 24 -86 27
-118 4z m84 -109 c-5 -20 -13 -25 -36 -25 -44 0 -42 36 3 48 39 11 41 10 33
-23z"/>
<path d="M632 644 c-12 -8 -22 -22 -22 -30 0 -19 36 -18 44 1 7 19 52 19 60 0
6 -17 -22 -35 -54 -35 -37 0 -60 -19 -60 -48 0 -16 5 -33 12 -40 15 -15 63
-16 89 -2 13 7 19 7 19 0 0 -5 10 -10 23 -10 21 0 22 3 19 77 -2 58 -7 81 -20
91 -22 17 -83 15 -110 -4z m88 -90 c0 -20 -24 -44 -44 -44 -27 0 -40 22 -23
39 11 11 67 16 67 5z"/>
<path d="M794 647 c-3 -8 -4 -47 -2 -88 3 -68 5 -74 26 -77 20 -3 22 0 22 51
0 57 19 87 53 87 10 0 17 8 17 20 0 25 -26 26 -52 3 -17 -15 -18 -15 -18 0 0
20 -38 23 -46 4z"/>
<path d="M930 570 c0 -89 0 -90 25 -90 24 0 25 3 25 61 0 58 1 61 30 72 18 7
30 19 30 29 0 22 -18 23 -48 2 -20 -14 -22 -14 -22 0 0 9 -9 16 -20 16 -19 0
-20 -7 -20 -90z"/>
<path d="M1087 640 c-31 -24 -42 -66 -27 -105 15 -39 38 -54 83 -55 53 0 87
35 87 90 0 78 -82 118 -143 70z m93 -43 c13 -24 13 -30 0 -54 -19 -33 -42 -40
-64 -18 -33 33 -9 111 32 103 9 -2 23 -15 32 -31z"/>
<path d="M1282 644 c-12 -8 -22 -22 -22 -30 0 -19 36 -18 44 2 8 20 61 15 61
-6 0 -14 -21 -23 -77 -35 -48 -9 -49 -79 -1 -92 15 -3 39 -1 55 5 16 6 28 6
28 1 0 -5 10 -9 23 -9 22 0 22 3 19 78 -3 56 -8 80 -20 90 -22 17 -83 15 -110
-4z m88 -97 c0 -20 -22 -37 -47 -37 -22 0 -33 27 -16 43 12 13 63 7 63 -6z"/>
<path d="M1645 635 c-19 -18 -25 -35 -25 -68 0 -57 30 -87 86 -87 67 0 106 62
79 126 -24 58 -96 74 -140 29z m87 -22 c22 -20 24 -66 2 -87 -46 -47 -98 25
-58 82 18 26 31 28 56 5z"/>
<path d="M2985 635 c-19 -18 -25 -35 -25 -65 0 -79 82 -118 144 -69 22 17 26
28 26 69 0 41 -4 52 -26 69 -37 29 -89 27 -119 -4z m89 -21 c30 -30 11 -104
-26 -104 -22 0 -48 33 -48 61 0 29 23 59 45 59 7 0 21 -7 29 -16z"/>
<path d="M3360 571 c0 -91 0 -91 25 -91 l26 0 -3 88 c-3 82 -4 87 -25 90 -22
3 -23 1 -23 -87z"/>
<path d="M3455 634 c-54 -58 -18 -154 57 -154 38 0 78 24 78 46 0 18 -15 18
-45 -2 -18 -12 -28 -13 -44 -4 -12 6 -21 17 -21 25 0 12 14 15 60 15 58 0 60
1 60 25 0 68 -98 100 -145 49z m79 -10 c30 -12 18 -34 -19 -34 -37 0 -43 8
-23 28 14 14 20 14 42 6z"/>
<path d="M3630 570 c0 -89 0 -90 25 -90 24 0 25 3 25 61 0 58 1 61 30 72 18 7
30 19 30 29 0 23 -28 23 -52 1 -17 -15 -18 -15 -18 0 0 10 -8 17 -20 17 -19 0
-20 -7 -20 -90z"/>
<path d="M3770 570 c0 -83 1 -90 20 -90 18 0 20 7 20 58 0 61 5 75 31 84 28
10 39 -13 39 -79 0 -61 1 -63 25 -63 24 0 25 2 25 68 0 45 -5 75 -16 90 -16
24 -53 29 -85 12 -13 -7 -19 -7 -19 0 0 5 -9 10 -20 10 -19 0 -20 -7 -20 -90z"/>
<path d="M3985 635 c-56 -55 -18 -155 59 -155 54 0 89 35 89 90 0 35 -6 48
-27 67 -37 31 -89 31 -121 -2z m89 -21 c30 -30 11 -104 -26 -104 -22 0 -48 33
-48 61 0 29 23 59 45 59 7 0 21 -7 29 -16z"/>
<path d="M325 340 c-83 -34 -99 -164 -27 -220 30 -24 89 -26 120 -4 20 14 22
14 22 0 0 -9 7 -16 15 -16 12 0 15 14 15 65 l0 65 -51 0 c-43 0 -50 -3 -47
-17 2 -10 15 -20 31 -23 26 -5 27 -6 12 -27 -20 -28 -65 -30 -88 -5 -40 44
-28 124 20 143 22 8 32 6 54 -11 26 -18 69 -28 69 -14 0 17 -24 46 -50 59 -32
16 -64 18 -95 5z"/>
<path d="M700 220 l0 -120 25 0 c14 0 25 5 25 12 0 9 3 9 12 0 22 -22 75 -14
97 14 55 70 -3 176 -80 147 -29 -11 -29 -11 -29 28 0 35 -3 39 -25 39 l-25 0
0 -120z m111 20 c14 -8 19 -21 19 -50 0 -29 -5 -42 -19 -50 -25 -13 -27 -13
-45 6 -20 20 -20 68 0 88 18 19 20 19 45 6z"/>
<path d="M2840 300 c0 -38 -12 -52 -25 -30 -11 17 -60 11 -83 -10 -32 -30 -31
-108 1 -138 25 -24 57 -28 88 -12 13 7 19 7 19 0 0 -5 9 -10 20 -10 19 0 20 7
20 120 0 113 -1 120 -20 120 -17 0 -20 -7 -20 -40z m-16 -72 c21 -29 20 -51
-3 -79 -18 -22 -19 -22 -45 -6 -30 20 -36 66 -10 91 21 22 40 20 58 -6z"/>
<path d="M3220 220 c0 -113 1 -120 20 -120 17 0 19 8 22 82 l3 83 52 -83 c43
-67 57 -82 78 -82 l25 0 0 120 0 120 -25 0 c-23 0 -24 -3 -27 -77 l-3 -78 -48
78 c-39 62 -53 77 -73 77 l-24 0 0 -120z"/>
<path d="M543 268 c-48 -23 -55 -121 -10 -153 22 -15 73 -20 102 -9 19 8 45
55 45 83 0 70 -71 111 -137 79z m68 -28 c27 -15 27 -85 -1 -100 -14 -8 -26 -8
-40 0 -27 14 -28 84 -2 99 21 13 20 13 43 1z"/>
<path d="M933 256 c-62 -53 -21 -156 63 -156 22 0 42 8 56 22 26 26 11 36 -32
18 -32 -13 -70 0 -70 25 0 12 15 15 65 15 l65 0 -6 28 c-8 37 -49 72 -84 72
-16 0 -41 -11 -57 -24z m83 -23 c17 -17 16 -18 -20 -21 -46 -4 -58 5 -32 24
25 18 31 18 52 -3z"/>
<path d="M1107 273 c-4 -3 -7 -44 -7 -90 0 -82 0 -83 25 -83 24 0 25 3 25 54
0 56 16 86 46 86 8 0 14 9 14 20 0 24 -17 26 -42 3 -17 -15 -18 -15 -18 0 0
17 -30 24 -43 10z"/>
<path d="M1240 190 c0 -89 0 -90 25 -90 24 0 25 2 25 65 0 53 3 66 19 75 33
17 51 -12 51 -81 0 -52 2 -59 20 -59 18 0 20 7 20 74 0 54 -4 79 -16 90 -19
19 -65 21 -83 4 -11 -10 -14 -10 -18 0 -3 6 -13 12 -24 12 -17 0 -19 -8 -19
-90z"/>
<path d="M1440 202 c0 -47 5 -83 12 -90 16 -16 70 -16 86 0 9 9 12 9 12 0 0
-7 11 -12 25 -12 25 0 25 1 25 90 0 89 0 90 -25 90 -24 0 -25 -2 -25 -65 0
-70 -16 -93 -52 -74 -14 8 -18 23 -18 74 0 58 -2 65 -20 65 -18 0 -20 -7 -20
-78z"/>
<path d="M1652 264 c-12 -8 -22 -22 -22 -30 0 -19 34 -18 50 1 16 20 49 19 57
0 8 -21 1 -26 -47 -32 -56 -8 -80 -41 -56 -78 12 -18 25 -25 49 -25 18 0 38 5
44 11 8 8 13 8 17 0 4 -6 16 -11 27 -11 17 0 19 7 19 70 0 57 -4 74 -20 90
-24 24 -86 27 -118 4z m77 -120 c-16 -19 -53 -14 -57 8 -4 22 61 43 66 21 2
-8 -2 -21 -9 -29z"/>
<path d="M2935 255 c-55 -54 -18 -155 57 -155 38 0 78 24 78 46 0 18 -19 18
-44 -1 -25 -19 -41 -19 -60 1 -28 27 -18 34 49 34 72 0 78 7 50 59 -25 49 -90
57 -130 16z m85 -20 c18 -21 9 -27 -36 -23 -36 3 -37 4 -20 21 21 21 40 22 56
2z"/>
<path d="M3472 264 c-12 -8 -22 -19 -22 -25 0 -12 34 -11 47 2 15 15 58 7 58
-11 0 -10 -18 -19 -49 -27 -27 -7 -53 -18 -58 -25 -32 -51 34 -99 93 -68 13 7
19 7 19 0 0 -5 10 -10 23 -10 22 0 22 3 19 78 -3 56 -8 80 -20 90 -22 17 -83
15 -110 -4z m78 -119 c-7 -8 -23 -15 -37 -15 -20 0 -24 4 -21 22 2 16 12 24
33 28 33 6 45 -11 25 -35z"/>
<path d="M3621 268 c0 -7 12 -47 28 -88 23 -64 31 -75 53 -78 24 -3 28 2 52
75 31 93 32 103 8 103 -13 0 -23 -16 -38 -62 l-21 -63 -19 60 c-15 47 -24 61
-41 63 -14 2 -23 -2 -22 -10z"/>
<path d="M3822 264 c-12 -8 -22 -19 -22 -25 0 -12 34 -11 47 2 15 15 58 7 58
-11 0 -10 -18 -19 -49 -27 -27 -7 -53 -18 -58 -25 -32 -51 34 -99 93 -68 13 7
19 7 19 0 0 -5 11 -10 23 -10 24 0 24 2 19 78 -3 54 -9 81 -20 90 -22 17 -83
15 -110 -4z m78 -119 c-7 -8 -23 -15 -37 -15 -20 0 -24 4 -21 22 2 16 12 24
33 28 33 6 45 -11 25 -35z"/>
<path d="M3990 190 c0 -83 1 -90 20 -90 17 0 20 7 20 48 0 53 21 92 51 92 12
0 19 7 19 20 0 25 -26 26 -52 3 -17 -15 -18 -15 -18 0 0 10 -8 17 -20 17 -19
0 -20 -7 -20 -90z"/>
<path d="M4120 190 c0 -89 0 -90 25 -90 24 0 25 3 25 54 0 56 16 86 46 86 8 0
14 9 14 20 0 22 -12 25 -40 10 -13 -7 -21 -7 -25 0 -3 5 -15 10 -26 10 -17 0
-19 -8 -19 -90z"/>
<path d="M4272 264 c-12 -8 -22 -19 -22 -25 0 -12 47 -12 55 1 8 14 42 13 51
-2 10 -15 -24 -38 -58 -38 -18 0 -33 -8 -44 -25 -15 -23 -15 -27 0 -50 12 -18
25 -25 49 -25 18 0 38 5 44 11 8 8 13 8 17 0 4 -6 16 -11 27 -11 17 0 19 7 19
73 0 59 -4 77 -18 90 -24 21 -90 22 -120 1z m84 -109 c-5 -21 -12 -26 -34 -23
-40 4 -37 41 3 49 38 7 39 6 31 -26z"/>
</g>
</svg>
